PathFileType	4	(X/Y/Z)	E:\Qualisys_Data\Carbon_Farble_Plate\Data\Amateur_Runner\S1\T1\S1T1V11_c3d.trc
DataRate	CameraRate	NumFrames	NumMarkers	Units	OrigDataRate	OrigDataStartFrame	OrigNumFrames
200.000000	200.000000	4	39	mm	200.000000	203	326
Frame#	Time	LSHO			RSHO			LICST			RICST			LASIS			LHEEL			RASIS			LTROC			RTROC			SACR			LTH1			LSK4			LTH2			LTH3			RHM5			LSK2			LTH4			RTH1			LTOE			RTH2			RTH3			RTH4			LLEP			RLEP			LSK1			LSK3			RSK1			LHM5			RSK2			LFT1			RSK3			RSK4			LLME			RLME			RTOE			RHEEL			RFT1			RFT2			LFT2			
		X1	Y1	Z1	X2	Y2	Z2	X3	Y3	Z3	X4	Y4	Z4	X5	Y5	Z5	X6	Y6	Z6	X7	Y7	Z7	X8	Y8	Z8	X9	Y9	Z9	X10	Y10	Z10	X11	Y11	Z11	X12	Y12	Z12	X13	Y13	Z13	X14	Y14	Z14	X15	Y15	Z15	X16	Y16	Z16	X17	Y17	Z17	X18	Y18	Z18	X19	Y19	Z19	X20	Y20	Z20	X21	Y21	Z21	X22	Y22	Z22	X23	Y23	Z23	X24	Y24	Z24	X25	Y25	Z25	X26	Y26	Z26	X27	Y27	Z27	X28	Y28	Z28	X29	Y29	Z29	X30	Y30	Z30	X31	Y31	Z31	X32	Y32	Z32	X33	Y33	Z33	X34	Y34	Z34	X35	Y35	Z35	X36	Y36	Z36	X37	Y37	Z37	X38	Y38	Z38	X39	Y39	Z39	

204	1.015	576.9618530273438	1493.845947265625	-552.778564453125	590.9287719726562	1458.442993164062	-223.6986846923828	544.4620971679688	1009.815673828125	-527.6559448242188	556.9208984375	1033.931274414062	-228.2394561767578	590.9004516601562	975.0494995117188	-501.2347717285156	359.4799194335938	302.3823547363281	-429.4556274414062	595.1680297851562	985.1022338867188	-236.0777282714844	496.9017333984375	885.2048950195312	-543.8746948242188	481.6410522460938	898.030029296875	-207.0987854003906	433.2743225097656	1036.284423828125	-370.8404235839844	677.5285034179688	800.4710693359375	-521.597412109375	482.2218933105469	402.5889892578125	-463.7559509277344	609.256591796875	756.0714111328125	-551.0545043945312	729.5664672851562	710.73095703125	-515.11474609375	415.9307250976562	50.22475814819336	-238.1817779541016	559.7899780273438	460.5166625976562	-501.3920288085938	656.8751831054688	668.0013427734375	-532.5219116210938	604.5469970703125	761.37158203125	-228.7005157470703	536.3173828125	117.8993453979492	-434.5126342773438	529.3344116210938	762.6652221679688	-199.8126373291016	597.8875122070312	660.0421142578125	-238.8456726074219	520.1820068359375	664.6470947265625	-218.5271148681641	746.3145141601562	547.4566650390625	-501.9241027832031	533.5345458984375	491.9386291503906	-263.0191345214844	607.9418334960938	391.9802856445312	-497.3850402832031	523.013916015625	337.4945678710938	-489.0565185546875	452.1228942871094	318.393798828125	-249.4926300048828	476.225341796875	149.3030395507812	-491.7783813476562	379.3371887207031	355.7572326660156	-250.6087799072266	351.3019104003906	277.9037170410156	-399.4319458007812	406.7839050292969	229.2398529052734	-261.8088073730469	335.4347534179688	267.9029846191406	-272.8696594238281	411.8416442871094	283.5199890136719	-477.7240600585938	315.7877807617188	134.3616943359375	-257.7984008789062	484.5121765136719	51.29240036010742	-320.5493469238281	235.9075164794922	109.9432373046875	-296.8146362304688	240.9893798828125	80.47337341308594	-328.5589599609375	235.2217102050781	84.1812515258789	-270.3778381347656	342.1276245117188	277.9985961914062	-452.2810974121094
205	1.02	589.6886596679688	1497.379516601562	-554.1212158203125	608.818359375	1462.8115234375	-225.2254791259766	561.9044189453125	1015.231201171875	-527.49853515625	573.7063598632812	1036.225952148438	-228.4360961914062	607.5684204101562	978.7532348632812	-501.3240051269531	387.3948059082031	292.3898620605469	-429.6788330078125	612.0332641601562	987.2184448242188	-236.3654022216797	514.6055297851562	889.4479370117188	-545.2064819335938	497.6900939941406	900.9033203125	-208.0962982177734	449.89794921875	1039.541259765625	-371.4151306152344	695.0626220703125	805.84033203125	-521.1445922851562	505.5485229492188	397.83837890625	-464.4396362304688	627.7963256835938	761.3117065429688	-551.0570678710938	747.9296264648438	716.53955078125	-514.25634765625	416.3939819335938	50.64771270751953	-238.5027770996094	581.4696044921875	458.5583801269531	-501.0798034667969	675.5681762695312	673.2882690429688	-532.9757690429688	617.6568603515625	762.2874145507812	-230.9235992431641	571.8383178710938	115.8990783691406	-435.7947387695312	542.745361328125	765.2820434570312	-201.0839996337891	608.8314819335938	661.664794921875	-241.663818359375	530.8140258789062	667.851806640625	-219.5576782226562	765.4010009765625	552.9096069335938	-501.7174377441406	539.26318359375	495.2392883300781	-264.1138610839844	632.1710815429688	391.8625793457031	-497.5789489746094	549.3543090820312	334.5578308105469	-489.7491149902344	455.7938842773438	322.3531799316406	-250.1663360595703	510.3779296875	144.7439575195312	-492.6096801757812	383.1571350097656	360.6159057617188	-251.8892059326172	380.4025268554688	267.4302978515625	-399.9704895019531	409.8173828125	233.7464752197266	-262.0384216308594	339.0791015625	272.7584228515625	-274.1351623535156	440.4241027832031	275.89013671875	-478.6753540039062	318.0903625488281	138.9070587158203	-257.93115234375	484.8476867675781	51.13848495483398	-320.8496398925781	239.3065338134766	116.2368850708008	-296.2582092285156	243.458251953125	86.87438201904297	-328.0950317382812	237.9441375732422	90.84722900390624	-270.0087280273438	371.0458984375	267.3468017578125	-452.5648193359375
206	1.025	602.5307006835938	1501.35888671875	-555.0401611328125	626.7817993164062	1467.338989257812	-226.7693176269531	579.1162109375	1019.692199707031	-527.7544555664062	591.03955078125	1038.55517578125	-228.7337341308594	624.5540161132812	982.9375610351562	-501.5078430175781	415.1669311523438	282.7065124511719	-431.2025756835938	628.6695556640625	989.7462768554688	-236.7767028808594	532.2949829101562	894.1089477539062	-546.891845703125	513.5921630859375	904.1787109375	-209.2593841552734	466.8399658203125	1043.10400390625	-372.6286315917969	712.8458862304688	811.2196044921875	-520.0911865234375	530.2581176757812	392.2948913574219	-464.2054443359375	646.26318359375	766.7088623046875	-551.4464111328125	766.1138305664062	721.9425048828125	-513.3517456054688	416.8785705566406	51.1577033996582	-238.6949310302734	602.5452880859375	456.9920349121094	-501.9762573242188	694.040283203125	678.4673461914062	-533.2916870117188	630.6922607421875	763.9103393554688	-233.0751342773438	608.0034790039062	114.3516006469727	-435.92041015625	556.4154663085938	768.6480102539062	-202.3032989501953	619.3411865234375	663.4691162109375	-243.884521484375	542.1697387695312	671.4203491210938	-221.0821380615234	783.9767456054688	557.8656005859375	-501.4697875976562	545.508544921875	498.8591918945312	-265.6700744628906	656.36083984375	392.380859375	-497.9432067871094	576.6414794921875	331.7862548828125	-490.7040405273438	459.5185241699219	327.1376953125	-250.8130035400391	544.668212890625	140.3495483398438	-493.9219055175781	388.02294921875	365.46826171875	-252.6916656494141	410.2813720703125	256.8253173828125	-400.5208435058594	413.3753051757812	238.4644165039062	-262.0120239257812	343.2737121582031	278.0169372558594	-275.5943908691406	469.4913940429688	268.33349609375	-478.9971313476562	321.1497497558594	144.0147399902344	-258.3183288574219	485.3257751464844	50.96620559692383	-320.9945983886719	242.7233581542969	122.8119888305664	-296.3095397949219	246.2863922119141	92.90534973144533	-328.2801818847656	241.3731384277344	97.07542419433594	-269.9804382324219	400.2802734375	256.5157165527344	-453.0469055175781
207	1.03	615.5570678710938	1504.428344726562	-555.8280639648438	644.6465454101562	1471.914306640625	-228.1906127929688	596.1827392578125	1024.437377929688	-528.176513671875	608.0700073242188	1041.41845703125	-229.3251190185547	641.2357177734375	986.9952392578124	-501.7875671386719	443.7218017578125	272.3796997070312	-431.5725708007812	645.7899169921875	991.8692626953124	-237.5836639404297	550.3375854492188	898.8837280273438	-548.0726318359375	530.010009765625	907.708740234375	-209.6694030761719	484.6243896484375	1047.772705078125	-371.9317016601562	730.9296875	816.4407348632812	-519.4988403320312	554.3353271484375	386.8703308105469	-464.4677429199219	664.4761352539062	771.7203979492188	-551.9197998046875	784.1071166992188	727.421630859375	-512.7575073242188	417.754150390625	52.31244277954102	-239.2236785888672	623.7591552734375	454.2444458007812	-501.929931640625	712.4805908203125	683.7902221679688	-533.6873779296875	644.07373046875	765.8599243164062	-235.330810546875	643.2119750976562	112.1561584472656	-438.1986083984375	570.0751953125	772.0255737304688	-203.74267578125	630.4103393554688	665.4757080078125	-246.1102447509766	553.4323120117188	675.3306884765625	-222.0129241943359	802.13818359375	562.8893432617188	-501.2317199707031	552.3253173828125	502.5851745605469	-266.10595703125	680.1019897460938	391.9475402832031	-498.3922119140625	602.9271850585938	328.15673828125	-491.2839965820312	464.3265075683594	331.83740234375	-251.1382446289062	579.227783203125	136.1956787109375	-494.9010620117188	393.1934814453125	370.7873840332031	-253.8476715087891	438.7832946777344	246.8671264648438	-401.7531433105469	417.7728576660156	243.6186828613281	-261.8228454589844	347.8619689941406	283.62890625	-276.4588623046875	498.5591125488281	260.6811218261719	-479.5816040039062	324.9739074707031	149.4358978271484	-258.2630615234375	486.308349609375	50.86838912963867	-320.839111328125	246.7964630126953	128.9761047363281	-296.6763610839844	249.6996002197266	99.08533477783205	-328.5942077636719	244.471923828125	103.3379440307617	-270.3648071289062	429.5907897949219	245.8259582519531	-453.7985229492188
